<?xml version="1.0" encoding="UTF-8" standalone="no"?>
<svg
   xmlns:dc="http://purl.org/dc/elements/1.1/"
   xmlns:cc="http://creativecommons.org/ns#"
   xmlns:rdf="http://www.w3.org/1999/02/22-rdf-syntax-ns#"
   xmlns:svg="http://www.w3.org/2000/svg"
   xmlns="http://www.w3.org/2000/svg"
   id="svg8"
   version="1.1"
   viewBox="0 0 196.0291 125.03099"
   height="472.55804"
   width="740.8974">
  <defs
     id="defs2">
    <marker
       orient="auto"
       refY="0"
       refX="0"
       id="marker2470"
       style="overflow:visible">
      <path
         id="path2468"
         style="fill:#1283d0;fill-opacity:1;fill-rule:evenodd;stroke:#1283d0;stroke-width:0.625;stroke-linejoin:round;stroke-opacity:1"
         d="M 8.7185878,4.0337352 -2.2072895,0.01601326 8.7185884,-4.0017078 c -1.7454984,2.3720609 -1.7354408,5.6174519 -6e-7,8.035443 z"
         transform="scale(-0.6)" />
    </marker>
    <marker
       orient="auto"
       refY="0"
       refX="0"
       id="marker2412"
       style="overflow:visible">
      <path
         id="path2410"
         d="m -2.5,-1 c 0,2.76 -2.24,5 -5,5 -2.76,0 -5,-2.24 -5,-5 0,-2.76 2.24,-5 5,-5 2.76,0 5,2.24 5,5 z"
         style="fill:#1283d0;fill-opacity:1;fill-rule:evenodd;stroke:#1283d0;stroke-width:1.00000003pt;stroke-opacity:1"
         transform="matrix(0.4,0,0,0.4,2.96,0.4)" />
    </marker>
    <marker
       style="overflow:visible"
       id="marker1982"
       refX="0"
       refY="0"
       orient="auto">
      <path
         transform="scale(-0.6)"
         d="M 8.7185878,4.0337352 -2.2072895,0.01601326 8.7185884,-4.0017078 c -1.7454984,2.3720609 -1.7354408,5.6174519 -6e-7,8.035443 z"
         style="fill:#1283d0;fill-opacity:1;fill-rule:evenodd;stroke:#1283d0;stroke-width:0.625;stroke-linejoin:round;stroke-opacity:1"
         id="path1980" />
    </marker>
    <marker
       style="overflow:visible"
       id="marker1936"
       refX="0"
       refY="0"
       orient="auto">
      <path
         transform="matrix(0.4,0,0,0.4,2.96,0.4)"
         style="fill:#1283d0;fill-opacity:1;fill-rule:evenodd;stroke:#1283d0;stroke-width:1.00000003pt;stroke-opacity:1"
         d="m -2.5,-1 c 0,2.76 -2.24,5 -5,5 -2.76,0 -5,-2.24 -5,-5 0,-2.76 2.24,-5 5,-5 2.76,0 5,2.24 5,5 z"
         id="path1934" />
    </marker>
    <marker
       orient="auto"
       refY="0"
       refX="0"
       id="marker1686"
       style="overflow:visible">
      <path
         id="path1684"
         style="fill:#1283d0;fill-opacity:1;fill-rule:evenodd;stroke:#1283d0;stroke-width:0.625;stroke-linejoin:round;stroke-opacity:1"
         d="M 8.7185878,4.0337352 -2.2072895,0.01601326 8.7185884,-4.0017078 c -1.7454984,2.3720609 -1.7354408,5.6174519 -6e-7,8.035443 z"
         transform="scale(-0.6)" />
    </marker>
    <marker
       orient="auto"
       refY="0"
       refX="0"
       id="marker1652"
       style="overflow:visible">
      <path
         id="path1650"
         d="m -2.5,-1 c 0,2.76 -2.24,5 -5,5 -2.76,0 -5,-2.24 -5,-5 0,-2.76 2.24,-5 5,-5 2.76,0 5,2.24 5,5 z"
         style="fill:#1283d0;fill-opacity:1;fill-rule:evenodd;stroke:#1283d0;stroke-width:1.00000003pt;stroke-opacity:1"
         transform="matrix(0.4,0,0,0.4,2.96,0.4)" />
    </marker>
    <marker
       style="overflow:visible"
       id="Arrow2Mend"
       refX="0"
       refY="0"
       orient="auto">
      <path
         transform="scale(-0.6)"
         d="M 8.7185878,4.0337352 -2.2072895,0.01601326 8.7185884,-4.0017078 c -1.7454984,2.3720609 -1.7354408,5.6174519 -6e-7,8.035443 z"
         style="fill:#1283d0;fill-opacity:1;fill-rule:evenodd;stroke:#1283d0;stroke-width:0.625;stroke-linejoin:round;stroke-opacity:1"
         id="path865" />
    </marker>
    <marker
       style="overflow:visible"
       id="DotM"
       refX="0"
       refY="0"
       orient="auto">
      <path
         transform="matrix(0.4,0,0,0.4,2.96,0.4)"
         style="fill:#1283d0;fill-opacity:1;fill-rule:evenodd;stroke:#1283d0;stroke-width:1.00000003pt;stroke-opacity:1"
         d="m -2.5,-1 c 0,2.76 -2.24,5 -5,5 -2.76,0 -5,-2.24 -5,-5 0,-2.76 2.24,-5 5,-5 2.76,0 5,2.24 5,5 z"
         id="path902" />
    </marker>
    <marker
       style="overflow:visible"
       id="Arrow1Lend"
       refX="0"
       refY="0"
       orient="auto">
      <path
         transform="matrix(-0.8,0,0,-0.8,-10,0)"
         style="fill:#000000;fill-opacity:1;fill-rule:evenodd;stroke:#000000;stroke-width:1.00000003pt;stroke-opacity:1"
         d="M 0,0 5,-5 -12.5,0 5,5 Z"
         id="path841" />
    </marker>
  </defs>
  <metadata
     id="metadata5">
    <rdf:RDF>
      <cc:Work
         rdf:about="">
        <dc:format>image/svg+xml</dc:format>
        <dc:type
           rdf:resource="http://purl.org/dc/dcmitype/StillImage" />
        <dc:title></dc:title>
      </cc:Work>
    </rdf:RDF>
  </metadata>
  <g
     transform="translate(-7.4595143,-26.430572)"
     id="layer1">
    <rect
       y="36.295181"
       x="10.105348"
       height="112.52054"
       width="45.537613"
       id="rect12"
       style="opacity:0.86699997;fill:#ecb850;fill-opacity:0.72156863;stroke:none;stroke-width:0.8195321;stroke-miterlimit:4;stroke-dasharray:none" />
    <g
       id="text824"
       style="font-style:normal;font-weight:normal;font-size:10.58333302px;line-height:1.25;font-family:sans-serif;letter-spacing:0px;word-spacing:0px;fill:#000000;fill-opacity:1;stroke:none;stroke-width:0.26458332"
       aria-label="Joueur 1">
      <path
         id="path2916"
         style="font-style:normal;font-variant:normal;font-weight:bold;font-stretch:normal;font-size:7.76111126px;font-family:'Liberation Sans';-inkscape-font-specification:'Liberation Sans Bold';stroke-width:0.26458332"
         d="m 12.380098,34.571329 q -0.829923,0 -1.277097,-0.360013 -0.443383,-0.360012 -0.591178,-1.163408 l 1.110354,-0.162953 q 0.06821,0.413067 0.253904,0.613916 0.185691,0.197059 0.511597,0.197059 0.333485,0 0.504017,-0.223587 0.174322,-0.223586 0.174322,-0.640443 v -2.800518 h -1.064879 v -0.875399 h 2.179023 v 3.64939 q 0,0.833713 -0.473701,1.299834 -0.4737,0.466122 -1.326362,0.466122 z" />
      <path
         id="path2918"
         style="font-style:normal;font-variant:normal;font-weight:bold;font-stretch:normal;font-size:7.76111126px;font-family:'Liberation Sans';-inkscape-font-specification:'Liberation Sans Bold';stroke-width:0.26458332"
         d="m 19.152123,32.441571 q 0,0.996666 -0.553283,1.565107 -0.553282,0.564651 -1.531,0.564651 -0.95877,0 -1.504473,-0.568441 -0.545703,-0.568441 -0.545703,-1.561317 0,-0.989087 0.545703,-1.553738 0.545703,-0.568441 1.527211,-0.568441 1.004245,0 1.531,0.549493 0.530545,0.545703 0.530545,1.572686 z m -1.114144,0 q 0,-0.731394 -0.238745,-1.06109 -0.238745,-0.329695 -0.693498,-0.329695 -0.970139,0 -0.970139,1.390785 0,0.685918 0.234956,1.045931 0.238745,0.356223 0.685918,0.356223 0.981508,0 0.981508,-1.402154 z" />
      <path
         id="path2920"
         style="font-style:normal;font-variant:normal;font-weight:bold;font-stretch:normal;font-size:7.76111126px;font-family:'Liberation Sans';-inkscape-font-specification:'Liberation Sans Bold';stroke-width:0.26458332"
         d="m 21.00524,30.395184 v 2.30029 q 0,1.080038 0.727604,1.080038 0.386539,0 0.621495,-0.329696 0.238745,-0.333485 0.238745,-0.852661 v -2.197971 h 1.064879 v 3.183268 q 0,0.522966 0.03032,0.917085 h -1.015614 q -0.04547,-0.545703 -0.04547,-0.814765 h -0.01895 q -0.212218,0.466121 -0.541914,0.678339 -0.325906,0.212218 -0.776869,0.212218 -0.651812,0 -1.000456,-0.397909 -0.348643,-0.401698 -0.348643,-1.174777 v -2.603459 z" />
      <path
         id="path2922"
         style="font-style:normal;font-variant:normal;font-weight:bold;font-stretch:normal;font-size:7.76111126px;font-family:'Liberation Sans';-inkscape-font-specification:'Liberation Sans Bold';stroke-width:0.26458332"
         d="m 26.424374,34.571329 q -0.924663,0 -1.421102,-0.545703 -0.496438,-0.549493 -0.496438,-1.599214 0,-1.015614 0.504018,-1.561317 0.504017,-0.545703 1.428681,-0.545703 0.882978,0 1.349099,0.587389 0.466122,0.583599 0.466122,1.712901 v 0.03032 h -2.629986 q 0,0.598758 0.219797,0.905716 0.223586,0.303168 0.632864,0.303168 0.564651,0 0.712446,-0.488859 l 1.004245,0.08716 q -0.435805,1.114144 -1.769746,1.114144 z m 0,-3.581177 q -0.375171,0 -0.579809,0.261483 -0.200849,0.261483 -0.212218,0.731394 h 1.591634 q -0.03032,-0.496439 -0.238745,-0.742763 -0.208428,-0.250114 -0.560862,-0.250114 z" />
      <path
         id="path2924"
         style="font-style:normal;font-variant:normal;font-weight:bold;font-stretch:normal;font-size:7.76111126px;font-family:'Liberation Sans';-inkscape-font-specification:'Liberation Sans Bold';stroke-width:0.26458332"
         d="m 30.069975,30.395184 v 2.30029 q 0,1.080038 0.727604,1.080038 0.38654,0 0.621495,-0.329696 0.238746,-0.333485 0.238746,-0.852661 v -2.197971 h 1.064879 v 3.183268 q 0,0.522966 0.03032,0.917085 h -1.015614 q -0.04547,-0.545703 -0.04547,-0.814765 h -0.01895 q -0.212218,0.466121 -0.541914,0.678339 -0.325906,0.212218 -0.776869,0.212218 -0.651812,0 -1.000455,-0.397909 -0.348644,-0.401698 -0.348644,-1.174777 v -2.603459 z" />
      <path
         id="path2926"
         style="font-style:normal;font-variant:normal;font-weight:bold;font-stretch:normal;font-size:7.76111126px;font-family:'Liberation Sans';-inkscape-font-specification:'Liberation Sans Bold';stroke-width:0.26458332"
         d="m 33.810315,34.495537 v -3.137793 q 0,-0.337275 -0.01137,-0.560862 -0.0076,-0.227376 -0.01895,-0.401698 h 1.015614 q 0.01137,0.06821 0.03032,0.416857 0.01895,0.344854 0.01895,0.458542 h 0.01516 q 0.155374,-0.432015 0.276641,-0.606337 0.121268,-0.178111 0.28801,-0.261483 0.166743,-0.08716 0.416857,-0.08716 0.204639,0 0.329696,0.05684 v 0.890558 q -0.257693,-0.05684 -0.454753,-0.05684 -0.397908,0 -0.621495,0.322116 -0.219797,0.322116 -0.219797,0.95498 v 2.012281 z" />
      <path
         id="path2928"
         style="font-style:normal;font-variant:normal;font-weight:bold;font-stretch:normal;font-size:7.76111126px;font-family:'Liberation Sans';-inkscape-font-specification:'Liberation Sans Bold';stroke-width:0.26458332"
         d="m 38.926282,34.495537 v -0.792028 h 1.322572 v -3.64181 l -1.280887,0.799607 v -0.837503 l 1.337731,-0.86782 h 1.008035 v 4.547526 h 1.224042 v 0.792028 z" />
    </g>
    <rect
       style="opacity:0.86699997;fill:#ecb850;fill-opacity:0.72156863;stroke:none;stroke-width:0.81893784;stroke-miterlimit:4;stroke-dasharray:none"
       id="rect826"
       width="45.533298"
       height="112.36807"
       x="155.30948"
       y="36.297337" />
    <g
       id="text830"
       style="font-style:normal;font-weight:normal;font-size:10.58333302px;line-height:1.25;font-family:sans-serif;letter-spacing:0px;word-spacing:0px;fill:#000000;fill-opacity:1;stroke:none;stroke-width:0.26458332"
       aria-label="Joueur 2">
      <path
         id="path2901"
         style="font-style:normal;font-variant:normal;font-weight:bold;font-stretch:normal;font-size:7.76111126px;font-family:'Liberation Sans';-inkscape-font-specification:'Liberation Sans Bold';stroke-width:0.26458332"
         d="m 156.43837,34.571329 q -0.82992,0 -1.27709,-0.360013 -0.44339,-0.360012 -0.59118,-1.163408 l 1.11035,-0.162953 q 0.0682,0.413067 0.25391,0.613916 0.18569,0.197059 0.51159,0.197059 0.33349,0 0.50402,-0.223587 0.17432,-0.223586 0.17432,-0.640443 v -2.800518 h -1.06488 v -0.875399 h 2.17903 v 3.64939 q 0,0.833713 -0.4737,1.299834 -0.4737,0.466122 -1.32637,0.466122 z" />
      <path
         id="path2903"
         style="font-style:normal;font-variant:normal;font-weight:bold;font-stretch:normal;font-size:7.76111126px;font-family:'Liberation Sans';-inkscape-font-specification:'Liberation Sans Bold';stroke-width:0.26458332"
         d="m 163.2104,32.441571 q 0,0.996666 -0.55328,1.565107 -0.55329,0.564651 -1.531,0.564651 -0.95877,0 -1.50448,-0.568441 -0.5457,-0.568441 -0.5457,-1.561317 0,-0.989087 0.5457,-1.553738 0.54571,-0.568441 1.52721,-0.568441 1.00425,0 1.531,0.549493 0.53055,0.545703 0.53055,1.572686 z m -1.11414,0 q 0,-0.731394 -0.23875,-1.06109 -0.23875,-0.329695 -0.6935,-0.329695 -0.97014,0 -0.97014,1.390785 0,0.685918 0.23496,1.045931 0.23874,0.356223 0.68592,0.356223 0.98151,0 0.98151,-1.402154 z" />
      <path
         id="path2905"
         style="font-style:normal;font-variant:normal;font-weight:bold;font-stretch:normal;font-size:7.76111126px;font-family:'Liberation Sans';-inkscape-font-specification:'Liberation Sans Bold';stroke-width:0.26458332"
         d="m 165.06352,30.395184 v 2.30029 q 0,1.080038 0.7276,1.080038 0.38654,0 0.6215,-0.329696 0.23874,-0.333485 0.23874,-0.852661 v -2.197971 h 1.06488 v 3.183268 q 0,0.522966 0.0303,0.917085 h -1.01562 q -0.0455,-0.545703 -0.0455,-0.814765 h -0.019 q -0.21222,0.466121 -0.54191,0.678339 -0.32591,0.212218 -0.77687,0.212218 -0.65182,0 -1.00046,-0.397909 -0.34864,-0.401698 -0.34864,-1.174777 v -2.603459 z" />
      <path
         id="path2907"
         style="font-style:normal;font-variant:normal;font-weight:bold;font-stretch:normal;font-size:7.76111126px;font-family:'Liberation Sans';-inkscape-font-specification:'Liberation Sans Bold';stroke-width:0.26458332"
         d="m 170.48265,34.571329 q -0.92466,0 -1.4211,-0.545703 -0.49644,-0.549493 -0.49644,-1.599214 0,-1.015614 0.50402,-1.561317 0.50402,-0.545703 1.42868,-0.545703 0.88298,0 1.3491,0.587389 0.46612,0.583599 0.46612,1.712901 v 0.03032 h -2.62999 q 0,0.598758 0.2198,0.905716 0.22359,0.303168 0.63286,0.303168 0.56466,0 0.71245,-0.488859 l 1.00425,0.08716 q -0.43581,1.114144 -1.76975,1.114144 z m 0,-3.581177 q -0.37517,0 -0.57981,0.261483 -0.20085,0.261483 -0.21222,0.731394 h 1.59164 q -0.0303,-0.496439 -0.23875,-0.742763 -0.20843,-0.250114 -0.56086,-0.250114 z" />
      <path
         id="path2909"
         style="font-style:normal;font-variant:normal;font-weight:bold;font-stretch:normal;font-size:7.76111126px;font-family:'Liberation Sans';-inkscape-font-specification:'Liberation Sans Bold';stroke-width:0.26458332"
         d="m 174.12825,30.395184 v 2.30029 q 0,1.080038 0.72761,1.080038 0.38654,0 0.62149,-0.329696 0.23875,-0.333485 0.23875,-0.852661 v -2.197971 h 1.06487 v 3.183268 q 0,0.522966 0.0303,0.917085 h -1.01561 q -0.0455,-0.545703 -0.0455,-0.814765 h -0.019 q -0.21221,0.466121 -0.54191,0.678339 -0.32591,0.212218 -0.77687,0.212218 -0.65181,0 -1.00045,-0.397909 -0.34865,-0.401698 -0.34865,-1.174777 v -2.603459 z" />
      <path
         id="path2911"
         style="font-style:normal;font-variant:normal;font-weight:bold;font-stretch:normal;font-size:7.76111126px;font-family:'Liberation Sans';-inkscape-font-specification:'Liberation Sans Bold';stroke-width:0.26458332"
         d="m 177.86859,34.495537 v -3.137793 q 0,-0.337275 -0.0114,-0.560862 -0.008,-0.227376 -0.019,-0.401698 h 1.01562 q 0.0114,0.06821 0.0303,0.416857 0.0189,0.344854 0.0189,0.458542 h 0.0152 q 0.15538,-0.432015 0.27664,-0.606337 0.12127,-0.178111 0.28801,-0.261483 0.16675,-0.08716 0.41686,-0.08716 0.20464,0 0.32969,0.05684 v 0.890558 q -0.25769,-0.05684 -0.45475,-0.05684 -0.39791,0 -0.62149,0.322116 -0.2198,0.322116 -0.2198,0.95498 v 2.012281 z" />
      <path
         id="path2913"
         style="font-style:normal;font-variant:normal;font-weight:bold;font-stretch:normal;font-size:7.76111126px;font-family:'Liberation Sans';-inkscape-font-specification:'Liberation Sans Bold';stroke-width:0.26458332"
         d="m 182.76476,34.495537 v -0.738973 q 0.20843,-0.458542 0.59118,-0.894347 0.38654,-0.435805 0.97014,-0.909505 0.56086,-0.454753 0.78445,-0.750342 0.22737,-0.295589 0.22737,-0.57981 0,-0.697287 -0.70107,-0.697287 -0.34107,0 -0.52297,0.185691 -0.17811,0.181901 -0.23117,0.549492 l -1.07245,-0.06063 q 0.091,-0.742763 0.55328,-1.133092 0.46612,-0.390329 1.26573,-0.390329 0.86403,0 1.32636,0.394118 0.46233,0.394119 0.46233,1.106565 0,0.375171 -0.14779,0.678339 -0.1478,0.303169 -0.37896,0.560862 -0.23117,0.253904 -0.51539,0.47749 -0.28043,0.223587 -0.5457,0.435805 -0.26528,0.212218 -0.48507,0.428225 -0.21601,0.216008 -0.32212,0.462332 h 2.4784 v 0.875399 z" />
    </g>
    <g
       transform="translate(-1.2907193e-6)"
       id="g2607">
      <path
         style="fill:#1283d0;fill-opacity:1;stroke:#1283d0;stroke-width:1.16499996;stroke-linecap:butt;stroke-linejoin:miter;stroke-miterlimit:4;stroke-dasharray:none;stroke-opacity:1;marker-start:url(#DotM);marker-end:url(#Arrow2Mend)"
         d="M 32.874151,50.042958 H 178.07614"
         id="path836" />
      <g
         id="text1618"
         style="font-style:normal;font-weight:normal;font-size:10.58333302px;line-height:1.25;font-family:sans-serif;letter-spacing:0px;word-spacing:0px;fill:#000000;fill-opacity:1;stroke:none;stroke-width:0.26458332"
         aria-label="connect()">
        <path
           id="path2931"
           style="font-style:normal;font-variant:normal;font-weight:normal;font-stretch:normal;font-size:5.29166651px;font-family:'Fira Code';-inkscape-font-specification:'Fira Code';stroke-width:0.26458332"
           d="m 92.616759,46.379296 c -0.481542,0 -0.830792,-0.312209 -0.830792,-1.058334 0,-0.735541 0.343958,-1.090083 0.8255,-1.090083 0.248708,0 0.481542,0.08467 0.719667,0.243417 l 0.216958,-0.291042 c -0.259292,-0.216958 -0.5715,-0.328083 -0.931333,-0.328083 -0.830792,0 -1.312334,0.629708 -1.312334,1.465791 0,0.873125 0.47625,1.439334 1.312334,1.439334 0.322791,0 0.6985,-0.127 0.936625,-0.333375 l -0.211667,-0.291042 c -0.211667,0.142875 -0.4445,0.243417 -0.724958,0.243417 z" />
        <path
           id="path2933"
           style="font-style:normal;font-variant:normal;font-weight:normal;font-stretch:normal;font-size:5.29166651px;font-family:'Fira Code';-inkscape-font-specification:'Fira Code';stroke-width:0.26458332"
           d="m 95.588608,43.855171 c -0.783167,0 -1.2065,0.597958 -1.2065,1.455208 0,0.878417 0.418042,1.449917 1.201208,1.449917 0.777875,0 1.201209,-0.597959 1.201209,-1.455209 0,-0.878416 -0.41275,-1.449916 -1.195917,-1.449916 z m 0,0.365125 c 0.47625,0 0.714375,0.34925 0.714375,1.084791 0,0.746125 -0.238125,1.090084 -0.719667,1.090084 -0.481541,0 -0.719666,-0.343959 -0.719666,-1.084792 0,-0.740833 0.243416,-1.090083 0.724958,-1.090083 z" />
        <path
           id="path2935"
           style="font-style:normal;font-variant:normal;font-weight:normal;font-stretch:normal;font-size:5.29166651px;font-family:'Fira Code';-inkscape-font-specification:'Fira Code';stroke-width:0.26458332"
           d="m 97.697916,46.702087 h 0.4445 v -2.026708 c 0.148167,-0.22225 0.428625,-0.465667 0.756708,-0.465667 0.418042,0 0.47625,0.227542 0.47625,0.799042 v 1.693333 h 0.4445 v -2.021416 c 0,-0.518584 -0.238125,-0.8255 -0.783166,-0.8255 -0.328084,0 -0.6985,0.164041 -0.92075,0.449791 l -0.03704,-0.391583 h -0.381 z" />
        <path
           id="path2937"
           style="font-style:normal;font-variant:normal;font-weight:normal;font-stretch:normal;font-size:5.29166651px;font-family:'Fira Code';-inkscape-font-specification:'Fira Code';stroke-width:0.26458332"
           d="m 100.87085,46.702087 h 0.4445 v -2.026708 c 0.14817,-0.22225 0.42862,-0.465667 0.75671,-0.465667 0.41804,0 0.47625,0.227542 0.47625,0.799042 v 1.693333 h 0.4445 v -2.021416 c 0,-0.518584 -0.23813,-0.8255 -0.78317,-0.8255 -0.32808,0 -0.6985,0.164041 -0.92075,0.449791 l -0.037,-0.391583 h -0.381 z" />
        <path
           id="path2939"
           style="font-style:normal;font-variant:normal;font-weight:normal;font-stretch:normal;font-size:5.29166651px;font-family:'Fira Code';-inkscape-font-specification:'Fira Code';stroke-width:0.26458332"
           d="m 104.39832,45.463837 h 1.87325 c 0.005,-0.05821 0.0106,-0.142875 0.0106,-0.238125 0,-0.846666 -0.43392,-1.370541 -1.13771,-1.370541 -0.74083,0 -1.21179,0.613833 -1.21179,1.455208 0,0.867833 0.46037,1.449917 1.27529,1.449917 0.34396,0 0.69321,-0.121709 0.9525,-0.322792 l -0.20638,-0.296333 c -0.24871,0.164041 -0.46037,0.248708 -0.74612,0.248708 -0.42863,0 -0.78846,-0.280458 -0.80963,-0.926042 z m 0.75142,-1.243541 c 0.42333,0 0.68792,0.306916 0.6985,0.904875 h -1.44992 c 0.0371,-0.613834 0.33867,-0.904875 0.75142,-0.904875 z" />
        <path
           id="path2941"
           style="font-style:normal;font-variant:normal;font-weight:normal;font-stretch:normal;font-size:5.29166651px;font-family:'Fira Code';-inkscape-font-specification:'Fira Code';stroke-width:0.26458332"
           d="m 108.48142,46.379296 c -0.48154,0 -0.83079,-0.312209 -0.83079,-1.058334 0,-0.735541 0.34396,-1.090083 0.8255,-1.090083 0.24871,0 0.48154,0.08467 0.71967,0.243417 l 0.21696,-0.291042 c -0.2593,-0.216958 -0.5715,-0.328083 -0.93134,-0.328083 -0.83079,0 -1.31233,0.629708 -1.31233,1.465791 0,0.873125 0.47625,1.439334 1.31233,1.439334 0.32279,0 0.6985,-0.127 0.93663,-0.333375 l -0.21167,-0.291042 c -0.21167,0.142875 -0.4445,0.243417 -0.72496,0.243417 z" />
        <path
           id="path2943"
           style="font-style:normal;font-variant:normal;font-weight:normal;font-stretch:normal;font-size:5.29166651px;font-family:'Fira Code';-inkscape-font-specification:'Fira Code';stroke-width:0.26458332"
           d="m 112.60686,46.559212 -0.17463,-0.301625 c -0.14817,0.07937 -0.32808,0.132292 -0.53446,0.132292 -0.381,0 -0.53446,-0.164042 -0.53446,-0.470958 v -1.656292 h 0.91017 l 0.0582,-0.34925 h -0.96838 v -0.682625 l -0.4445,0.05292 v 0.629708 h -0.64029 v 0.34925 h 0.64029 v 1.661583 c 0,0.486834 0.33867,0.836084 0.93663,0.836084 0.26458,0 0.55562,-0.07408 0.75142,-0.201084 z" />
        <path
           id="path2945"
           style="font-style:normal;font-variant:normal;font-weight:normal;font-stretch:normal;font-size:5.29166651px;font-family:'Fira Code';-inkscape-font-specification:'Fira Code';stroke-width:0.26458332"
           d="m 114.16054,44.850004 c 0,-1.11125 0.36512,-1.672166 1.12712,-2.3495 l -0.22754,-0.243416 c -0.86254,0.703791 -1.36525,1.386416 -1.36525,2.592916 0,1.2065 0.50271,1.889125 1.36525,2.592917 l 0.22754,-0.243417 c -0.75141,-0.672042 -1.12712,-1.243542 -1.12712,-2.3495 z" />
        <path
           id="path2947"
           style="font-style:normal;font-variant:normal;font-weight:normal;font-stretch:normal;font-size:5.29166651px;font-family:'Fira Code';-inkscape-font-specification:'Fira Code';stroke-width:0.26458332"
           d="m 118.25422,44.850004 c 0,1.105958 -0.37571,1.677458 -1.12712,2.3495 l 0.22754,0.243417 c 0.86254,-0.703792 1.36525,-1.386417 1.36525,-2.592917 0,-1.2065 -0.50271,-1.889125 -1.36525,-2.592916 l -0.22754,0.243416 c 0.762,0.677334 1.12712,1.23825 1.12712,2.3495 z" />
      </g>
    </g>
    <g
       transform="translate(0,0.59618454)"
       id="g2612">
      <path
         id="path1644"
         d="M 177.15016,76.501293 H 31.948178"
         style="fill:#1283d0;fill-opacity:1;stroke:#1283d0;stroke-width:1.16499996;stroke-linecap:butt;stroke-linejoin:miter;stroke-miterlimit:4;stroke-dasharray:none;stroke-opacity:1;marker-start:url(#marker1652);marker-end:url(#marker1686)" />
      <g
         id="text1648"
         style="font-style:normal;font-weight:normal;font-size:10.58333302px;line-height:1.25;font-family:sans-serif;letter-spacing:0px;word-spacing:0px;fill:#000000;fill-opacity:1;stroke:none;stroke-width:0.26458332"
         aria-label="/annonce &lt;peer&gt;">
        <path
           id="path2950"
           style="font-style:normal;font-variant:normal;font-weight:normal;font-stretch:normal;font-size:5.29166651px;font-family:'Fira Code';-inkscape-font-specification:'Fira Code';stroke-width:0.26458332"
           d="m 91.463175,73.705465 2.25425,-4.656667 -0.354541,-0.169333 -2.259542,4.66725 z" />
        <path
           id="path2952"
           style="font-style:normal;font-variant:normal;font-weight:normal;font-stretch:normal;font-size:5.29166651px;font-family:'Fira Code';-inkscape-font-specification:'Fira Code';stroke-width:0.26458332"
           d="M 96.525233,72.551882 V 71.21309 c 0,-0.550333 -0.34925,-0.899583 -1.042458,-0.899583 -0.275167,0 -0.5715,0.05292 -0.915459,0.174625 l 0.121709,0.338666 c 0.28575,-0.100541 0.53975,-0.142875 0.724958,-0.142875 0.41275,0 0.661458,0.148167 0.661458,0.555625 v 0.227542 h -0.41275 c -0.841375,0 -1.30175,0.322792 -1.30175,0.894292 0,0.518583 0.338667,0.85725 0.899584,0.85725 0.359833,0 0.672041,-0.132292 0.873125,-0.391584 0.07408,0.254 0.269875,0.365125 0.508,0.396875 l 0.111125,-0.3175 c -0.15875,-0.04763 -0.227542,-0.132291 -0.227542,-0.354541 z m -1.153583,0.333375 c -0.365125,0 -0.534459,-0.179917 -0.534459,-0.529167 0,-0.359833 0.22225,-0.582083 0.836084,-0.582083 h 0.402166 v 0.714375 C 95.9114,72.73709 95.646816,72.885257 95.37165,72.885257 Z" />
        <path
           id="path2954"
           style="font-style:normal;font-variant:normal;font-weight:normal;font-stretch:normal;font-size:5.29166651px;font-family:'Fira Code';-inkscape-font-specification:'Fira Code';stroke-width:0.26458332"
           d="m 97.697916,73.160423 h 0.4445 v -2.026708 c 0.148167,-0.22225 0.428625,-0.465667 0.756708,-0.465667 0.418042,0 0.47625,0.227542 0.47625,0.799042 v 1.693333 h 0.4445 v -2.021416 c 0,-0.518584 -0.238125,-0.8255 -0.783166,-0.8255 -0.328084,0 -0.6985,0.164041 -0.92075,0.449791 l -0.03704,-0.391583 h -0.381 z" />
        <path
           id="path2956"
           style="font-style:normal;font-variant:normal;font-weight:normal;font-stretch:normal;font-size:5.29166651px;font-family:'Fira Code';-inkscape-font-specification:'Fira Code';stroke-width:0.26458332"
           d="m 100.87085,73.160423 h 0.4445 v -2.026708 c 0.14817,-0.22225 0.42862,-0.465667 0.75671,-0.465667 0.41804,0 0.47625,0.227542 0.47625,0.799042 v 1.693333 h 0.4445 v -2.021416 c 0,-0.518584 -0.23813,-0.8255 -0.78317,-0.8255 -0.32808,0 -0.6985,0.164041 -0.92075,0.449791 l -0.037,-0.391583 h -0.381 z" />
        <path
           id="path2958"
           style="font-style:normal;font-variant:normal;font-weight:normal;font-stretch:normal;font-size:5.29166651px;font-family:'Fira Code';-inkscape-font-specification:'Fira Code';stroke-width:0.26458332"
           d="m 105.10741,70.313507 c -0.78317,0 -1.2065,0.597958 -1.2065,1.455208 0,0.878417 0.41804,1.449917 1.20121,1.449917 0.77787,0 1.2012,-0.597959 1.2012,-1.455209 0,-0.878416 -0.41275,-1.449916 -1.19591,-1.449916 z m 0,0.365125 c 0.47625,0 0.71437,0.34925 0.71437,1.084791 0,0.746125 -0.23812,1.090084 -0.71966,1.090084 -0.48155,0 -0.71967,-0.343959 -0.71967,-1.084792 0,-0.740833 0.24342,-1.090083 0.72496,-1.090083 z" />
        <path
           id="path2960"
           style="font-style:normal;font-variant:normal;font-weight:normal;font-stretch:normal;font-size:5.29166651px;font-family:'Fira Code';-inkscape-font-specification:'Fira Code';stroke-width:0.26458332"
           d="m 107.21671,73.160423 h 0.4445 v -2.026708 c 0.14817,-0.22225 0.42863,-0.465667 0.75671,-0.465667 0.41804,0 0.47625,0.227542 0.47625,0.799042 v 1.693333 h 0.4445 v -2.021416 c 0,-0.518584 -0.23812,-0.8255 -0.78316,-0.8255 -0.32809,0 -0.6985,0.164041 -0.92075,0.449791 l -0.037,-0.391583 h -0.381 z" />
        <path
           id="path2962"
           style="font-style:normal;font-variant:normal;font-weight:normal;font-stretch:normal;font-size:5.29166651px;font-family:'Fira Code';-inkscape-font-specification:'Fira Code';stroke-width:0.26458332"
           d="m 111.65436,72.837632 c -0.48155,0 -0.8308,-0.312209 -0.8308,-1.058334 0,-0.735541 0.34396,-1.090083 0.8255,-1.090083 0.24871,0 0.48155,0.08467 0.71967,0.243417 l 0.21696,-0.291042 c -0.25929,-0.216958 -0.5715,-0.328083 -0.93133,-0.328083 -0.8308,0 -1.31234,0.629708 -1.31234,1.465791 0,0.873125 0.47625,1.439334 1.31234,1.439334 0.32279,0 0.6985,-0.127 0.93662,-0.333375 l -0.21167,-0.291042 c -0.21166,0.142875 -0.4445,0.243417 -0.72495,0.243417 z" />
        <path
           id="path2964"
           style="font-style:normal;font-variant:normal;font-weight:normal;font-stretch:normal;font-size:5.29166651px;font-family:'Fira Code';-inkscape-font-specification:'Fira Code';stroke-width:0.26458332"
           d="m 113.91712,71.922173 h 1.87325 c 0.005,-0.05821 0.0106,-0.142875 0.0106,-0.238125 0,-0.846666 -0.43391,-1.370541 -1.1377,-1.370541 -0.74084,0 -1.2118,0.613833 -1.2118,1.455208 0,0.867833 0.46038,1.449917 1.2753,1.449917 0.34395,0 0.6932,-0.121709 0.9525,-0.322792 l -0.20638,-0.296333 c -0.24871,0.164041 -0.46037,0.248708 -0.74612,0.248708 -0.42863,0 -0.78846,-0.280458 -0.80963,-0.926042 z m 0.75142,-1.243541 c 0.42333,0 0.68791,0.306916 0.6985,0.904875 h -1.44992 c 0.037,-0.613834 0.33867,-0.904875 0.75142,-0.904875 z" />
        <path
           id="path2966"
           style="font-style:normal;font-variant:normal;font-weight:normal;font-stretch:normal;font-size:5.29166651px;font-family:'Fira Code';-inkscape-font-specification:'Fira Code';stroke-width:0.26458332"
           d="m 121.87695,70.017173 -2.032,1.254125 v 0.460375 l 2.01083,1.254125 0.23813,-0.322791 -1.86796,-1.158875 1.86796,-1.148292 z" />
        <path
           id="path2968"
           style="font-style:normal;font-variant:normal;font-weight:normal;font-stretch:normal;font-size:5.29166651px;font-family:'Fira Code';-inkscape-font-specification:'Fira Code';stroke-width:0.26458332"
           d="m 124.33021,70.313507 c -0.33337,0 -0.62971,0.164041 -0.83079,0.449791 l -0.037,-0.391583 h -0.381 v 3.910542 l 0.4445,-0.05292 v -1.328208 c 0.1905,0.211666 0.43392,0.3175 0.74083,0.3175 0.72496,0 1.07421,-0.608542 1.07421,-1.455209 0,-0.873125 -0.26987,-1.449916 -1.01071,-1.449916 z m -0.10583,0.359833 c 0.43921,0 0.635,0.365125 0.635,1.090083 0,0.740834 -0.23283,1.084792 -0.69321,1.084792 -0.26458,0 -0.49212,-0.132292 -0.64029,-0.34925 V 71.11784 c 0.15346,-0.22225 0.39158,-0.4445 0.6985,-0.4445 z" />
        <path
           id="path2970"
           style="font-style:normal;font-variant:normal;font-weight:normal;font-stretch:normal;font-size:5.29166651px;font-family:'Fira Code';-inkscape-font-specification:'Fira Code';stroke-width:0.26458332"
           d="m 126.61919,71.922173 h 1.87325 c 0.005,-0.05821 0.0106,-0.142875 0.0106,-0.238125 0,-0.846666 -0.43391,-1.370541 -1.13771,-1.370541 -0.74083,0 -1.21179,0.613833 -1.21179,1.455208 0,0.867833 0.46038,1.449917 1.27529,1.449917 0.34396,0 0.69321,-0.121709 0.9525,-0.322792 l -0.20637,-0.296333 c -0.24871,0.164041 -0.46038,0.248708 -0.74613,0.248708 -0.42862,0 -0.78845,-0.280458 -0.80962,-0.926042 z m 0.75142,-1.243541 c 0.42333,0 0.68791,0.306916 0.6985,0.904875 h -1.44992 c 0.037,-0.613834 0.33867,-0.904875 0.75142,-0.904875 z" />
        <path
           id="path2972"
           style="font-style:normal;font-variant:normal;font-weight:normal;font-stretch:normal;font-size:5.29166651px;font-family:'Fira Code';-inkscape-font-specification:'Fira Code';stroke-width:0.26458332"
           d="m 129.79212,71.922173 h 1.87325 c 0.005,-0.05821 0.0106,-0.142875 0.0106,-0.238125 0,-0.846666 -0.43391,-1.370541 -1.1377,-1.370541 -0.74084,0 -1.2118,0.613833 -1.2118,1.455208 0,0.867833 0.46038,1.449917 1.2753,1.449917 0.34395,0 0.6932,-0.121709 0.9525,-0.322792 l -0.20638,-0.296333 c -0.24871,0.164041 -0.46037,0.248708 -0.74612,0.248708 -0.42863,0 -0.78846,-0.280458 -0.80963,-0.926042 z m 0.75142,-1.243541 c 0.42333,0 0.68791,0.306916 0.6985,0.904875 h -1.44992 c 0.037,-0.613834 0.33867,-0.904875 0.75142,-0.904875 z" />
        <path
           id="path2974"
           style="font-style:normal;font-variant:normal;font-weight:normal;font-stretch:normal;font-size:5.29166651px;font-family:'Fira Code';-inkscape-font-specification:'Fira Code';stroke-width:0.26458332"
           d="m 134.49434,70.313507 c -0.5027,0 -0.78845,0.264583 -1.00012,0.719666 l -0.0847,-0.661458 h -0.77258 v 0.343958 h 0.43921 v 2.100792 h -0.43921 v 0.343958 h 1.44992 v -0.343958 h -0.56621 v -1.17475 c 0.17991,-0.613833 0.48683,-0.92075 0.91546,-0.92075 h 0.0265 v 0.597958 h 0.35984 l 0.0635,-0.947208 c -0.12171,-0.03175 -0.23813,-0.05821 -0.39159,-0.05821 z" />
        <path
           id="path2976"
           style="font-style:normal;font-variant:normal;font-weight:normal;font-stretch:normal;font-size:5.29166651px;font-family:'Fira Code';-inkscape-font-specification:'Fira Code';stroke-width:0.26458332"
           d="m 135.93691,70.017173 -0.21696,0.338667 1.86796,1.148292 -1.86796,1.153583 0.23812,0.328083 2.01084,-1.254125 V 71.27659 Z" />
      </g>
    </g>
    <g
       transform="translate(0,-0.76025721)"
       id="g2617">
      <path
         style="fill:#1283d0;fill-opacity:1;stroke:#1283d0;stroke-width:1.16499996;stroke-linecap:butt;stroke-linejoin:miter;stroke-miterlimit:4;stroke-dasharray:none;stroke-opacity:1;marker-start:url(#marker1936);marker-end:url(#marker1982)"
         d="M 177.15016,105.07631 H 31.948178"
         id="path1928" />
      <g
         id="text1932"
         style="font-style:normal;font-weight:normal;font-size:10.58333302px;line-height:1.25;font-family:sans-serif;letter-spacing:0px;word-spacing:0px;fill:#000000;fill-opacity:1;stroke:none;stroke-width:0.26458332"
         aria-label="/player &lt;player&gt;">
        <path
           id="path3004"
           style="font-style:normal;font-variant:normal;font-weight:normal;font-stretch:normal;font-size:5.29166651px;font-family:'Fira Code';-inkscape-font-specification:'Fira Code';stroke-width:0.26458332"
           d="m 91.463175,102.28046 2.25425,-4.656665 -0.354541,-0.169333 -2.259542,4.667248 z" />
        <path
           id="path3006"
           style="font-style:normal;font-variant:normal;font-weight:normal;font-stretch:normal;font-size:5.29166651px;font-family:'Fira Code';-inkscape-font-specification:'Fira Code';stroke-width:0.26458332"
           d="m 95.773816,98.888504 c -0.333375,0 -0.629708,0.164041 -0.830791,0.449791 l -0.03704,-0.391583 h -0.381 v 3.910538 l 0.4445,-0.0529 v -1.32821 c 0.1905,0.21167 0.433917,0.3175 0.740833,0.3175 0.724959,0 1.074209,-0.60854 1.074209,-1.45521 0,-0.873125 -0.269875,-1.449916 -1.010709,-1.449916 z m -0.105833,0.359833 c 0.439208,0 0.635,0.365125 0.635,1.090083 0,0.74083 -0.232833,1.08479 -0.693208,1.08479 -0.264584,0 -0.492125,-0.13229 -0.640292,-0.34925 v -1.381123 c 0.153458,-0.22225 0.391583,-0.4445 0.6985,-0.4445 z" />
        <path
           id="path3008"
           style="font-style:normal;font-variant:normal;font-weight:normal;font-stretch:normal;font-size:5.29166651px;font-family:'Fira Code';-inkscape-font-specification:'Fira Code';stroke-width:0.26458332"
           d="m 98.798335,97.824879 h -1.30175 v 0.354541 h 0.85725 v 2.84692 c 0,0.48154 0.333375,0.76729 0.8255,0.76729 0.28575,0 0.513291,-0.0635 0.661458,-0.14288 l -0.116417,-0.32279 c -0.153458,0.0582 -0.301625,0.0952 -0.465666,0.0952 -0.269875,0 -0.460375,-0.10054 -0.460375,-0.37571 z" />
        <path
           id="path3010"
           style="font-style:normal;font-variant:normal;font-weight:normal;font-stretch:normal;font-size:5.29166651px;font-family:'Fira Code';-inkscape-font-specification:'Fira Code';stroke-width:0.26458332"
           d="m 102.88143,101.12688 v -1.338793 c 0,-0.550333 -0.34925,-0.899583 -1.04245,-0.899583 -0.27517,0 -0.5715,0.05292 -0.91546,0.174625 l 0.12171,0.338666 c 0.28575,-0.100541 0.53975,-0.142875 0.72495,-0.142875 0.41275,0 0.66146,0.148167 0.66146,0.555625 v 0.227545 h -0.41275 c -0.84137,0 -1.30175,0.32279 -1.30175,0.89429 0,0.51858 0.33867,0.85725 0.89959,0.85725 0.35983,0 0.67204,-0.13229 0.87312,-0.39158 0.0741,0.254 0.26988,0.36512 0.508,0.39687 l 0.11113,-0.3175 c -0.15875,-0.0476 -0.22755,-0.13229 -0.22755,-0.35454 z m -1.15358,0.33337 c -0.36512,0 -0.53446,-0.17991 -0.53446,-0.52916 0,-0.35984 0.22225,-0.58209 0.83609,-0.58209 h 0.40216 v 0.71438 c -0.16404,0.24871 -0.42862,0.39687 -0.70379,0.39687 z" />
        <path
           id="path3012"
           style="font-style:normal;font-variant:normal;font-weight:normal;font-stretch:normal;font-size:5.29166651px;font-family:'Fira Code';-inkscape-font-specification:'Fira Code';stroke-width:0.26458332"
           d="m 106.37187,98.946712 h -0.46038 l -0.78846,2.450038 -0.79904,-2.450038 h -0.47096 l 0.96838,2.788708 h 0.14816 c -0.14287,0.42863 -0.3122,0.66675 -0.8837,0.76729 l 0.0635,0.35454 c 0.74083,-0.0794 1.05304,-0.53445 1.24883,-1.10595 z" />
        <path
           id="path3014"
           style="font-style:normal;font-variant:normal;font-weight:normal;font-stretch:normal;font-size:5.29166651px;font-family:'Fira Code';-inkscape-font-specification:'Fira Code';stroke-width:0.26458332"
           d="m 107.58159,100.49717 h 1.87325 c 0.005,-0.0582 0.0106,-0.14287 0.0106,-0.23812 0,-0.846671 -0.43392,-1.370546 -1.13771,-1.370546 -0.74084,0 -1.21179,0.613833 -1.21179,1.455206 0,0.86784 0.46037,1.44992 1.27529,1.44992 0.34396,0 0.69321,-0.12171 0.9525,-0.32279 l -0.20638,-0.29634 c -0.24871,0.16405 -0.46037,0.24871 -0.74612,0.24871 -0.42863,0 -0.78846,-0.28046 -0.80963,-0.92604 z m 0.75142,-1.243541 c 0.42333,0 0.68792,0.306916 0.6985,0.904871 h -1.44992 c 0.037,-0.61383 0.33867,-0.904871 0.75142,-0.904871 z" />
        <path
           id="path3016"
           style="font-style:normal;font-variant:normal;font-weight:normal;font-stretch:normal;font-size:5.29166651px;font-family:'Fira Code';-inkscape-font-specification:'Fira Code';stroke-width:0.26458332"
           d="m 112.28382,98.888504 c -0.50271,0 -0.78846,0.264583 -1.00013,0.719666 l -0.0847,-0.661458 h -0.77258 v 0.343958 h 0.43921 v 2.10079 h -0.43921 v 0.34396 h 1.44992 v -0.34396 h -0.56621 v -1.17475 c 0.17992,-0.613831 0.48683,-0.920748 0.91546,-0.920748 h 0.0265 v 0.597958 h 0.35983 l 0.0635,-0.947208 c -0.12171,-0.03175 -0.23813,-0.05821 -0.39158,-0.05821 z" />
        <path
           id="path3018"
           style="font-style:normal;font-variant:normal;font-weight:normal;font-stretch:normal;font-size:5.29166651px;font-family:'Fira Code';-inkscape-font-specification:'Fira Code';stroke-width:0.26458332"
           d="m 118.71435,98.59217 -2.032,1.254125 v 0.460375 l 2.01083,1.25413 0.23813,-0.3228 -1.86796,-1.15887 1.86796,-1.148293 z" />
        <path
           id="path3020"
           style="font-style:normal;font-variant:normal;font-weight:normal;font-stretch:normal;font-size:5.29166651px;font-family:'Fira Code';-inkscape-font-specification:'Fira Code';stroke-width:0.26458332"
           d="m 121.16761,98.888504 c -0.33337,0 -0.6297,0.164041 -0.83079,0.449791 l -0.037,-0.391583 h -0.381 v 3.910538 l 0.4445,-0.0529 v -1.32821 c 0.1905,0.21167 0.43392,0.3175 0.74083,0.3175 0.72496,0 1.07421,-0.60854 1.07421,-1.45521 0,-0.873125 -0.26987,-1.449916 -1.01071,-1.449916 z m -0.10583,0.359833 c 0.43921,0 0.635,0.365125 0.635,1.090083 0,0.74083 -0.23283,1.08479 -0.69321,1.08479 -0.26458,0 -0.49212,-0.13229 -0.64029,-0.34925 v -1.381123 c 0.15346,-0.22225 0.39158,-0.4445 0.6985,-0.4445 z" />
        <path
           id="path3022"
           style="font-style:normal;font-variant:normal;font-weight:normal;font-stretch:normal;font-size:5.29166651px;font-family:'Fira Code';-inkscape-font-specification:'Fira Code';stroke-width:0.26458332"
           d="m 124.19213,97.824879 h -1.30175 v 0.354541 h 0.85725 v 2.84692 c 0,0.48154 0.33338,0.76729 0.8255,0.76729 0.28575,0 0.5133,-0.0635 0.66146,-0.14288 l -0.11641,-0.32279 c -0.15346,0.0582 -0.30163,0.0952 -0.46567,0.0952 -0.26988,0 -0.46038,-0.10054 -0.46038,-0.37571 z" />
        <path
           id="path3024"
           style="font-style:normal;font-variant:normal;font-weight:normal;font-stretch:normal;font-size:5.29166651px;font-family:'Fira Code';-inkscape-font-specification:'Fira Code';stroke-width:0.26458332"
           d="m 128.27523,101.12688 v -1.338793 c 0,-0.550333 -0.34925,-0.899583 -1.04246,-0.899583 -0.27516,0 -0.5715,0.05292 -0.91545,0.174625 l 0.1217,0.338666 c 0.28575,-0.100541 0.53975,-0.142875 0.72496,-0.142875 0.41275,0 0.66146,0.148167 0.66146,0.555625 v 0.227545 h -0.41275 c -0.84137,0 -1.30175,0.32279 -1.30175,0.89429 0,0.51858 0.33867,0.85725 0.89958,0.85725 0.35984,0 0.67205,-0.13229 0.87313,-0.39158 0.0741,0.254 0.26987,0.36512 0.508,0.39687 l 0.11112,-0.3175 c -0.15875,-0.0476 -0.22754,-0.13229 -0.22754,-0.35454 z m -1.15358,0.33337 c -0.36513,0 -0.53446,-0.17991 -0.53446,-0.52916 0,-0.35984 0.22225,-0.58209 0.83608,-0.58209 h 0.40217 v 0.71438 c -0.16404,0.24871 -0.42862,0.39687 -0.70379,0.39687 z" />
        <path
           id="path3026"
           style="font-style:normal;font-variant:normal;font-weight:normal;font-stretch:normal;font-size:5.29166651px;font-family:'Fira Code';-inkscape-font-specification:'Fira Code';stroke-width:0.26458332"
           d="m 131.76566,98.946712 h -0.46037 l -0.78846,2.450038 -0.79904,-2.450038 h -0.47096 l 0.96838,2.788708 h 0.14816 c -0.14287,0.42863 -0.31221,0.66675 -0.88371,0.76729 l 0.0635,0.35454 c 0.74084,-0.0794 1.05305,-0.53445 1.24884,-1.10595 z" />
        <path
           id="path3028"
           style="font-style:normal;font-variant:normal;font-weight:normal;font-stretch:normal;font-size:5.29166651px;font-family:'Fira Code';-inkscape-font-specification:'Fira Code';stroke-width:0.26458332"
           d="m 132.97539,100.49717 h 1.87325 c 0.005,-0.0582 0.0106,-0.14287 0.0106,-0.23812 0,-0.846671 -0.43391,-1.370546 -1.1377,-1.370546 -0.74084,0 -1.2118,0.613833 -1.2118,1.455206 0,0.86784 0.46038,1.44992 1.2753,1.44992 0.34395,0 0.6932,-0.12171 0.9525,-0.32279 l -0.20638,-0.29634 c -0.24871,0.16405 -0.46037,0.24871 -0.74612,0.24871 -0.42863,0 -0.78846,-0.28046 -0.80963,-0.92604 z m 0.75142,-1.243541 c 0.42333,0 0.68791,0.306916 0.6985,0.904871 h -1.44992 c 0.037,-0.61383 0.33867,-0.904871 0.75142,-0.904871 z" />
        <path
           id="path3030"
           style="font-style:normal;font-variant:normal;font-weight:normal;font-stretch:normal;font-size:5.29166651px;font-family:'Fira Code';-inkscape-font-specification:'Fira Code';stroke-width:0.26458332"
           d="m 137.67761,98.888504 c -0.5027,0 -0.78845,0.264583 -1.00012,0.719666 l -0.0847,-0.661458 h -0.77258 v 0.343958 h 0.43921 v 2.10079 h -0.43921 v 0.34396 h 1.44992 v -0.34396 h -0.56621 v -1.17475 c 0.17991,-0.613831 0.48683,-0.920748 0.91546,-0.920748 h 0.0265 v 0.597958 h 0.35984 l 0.0635,-0.947208 c -0.12171,-0.03175 -0.23813,-0.05821 -0.39159,-0.05821 z" />
        <path
           id="path3032"
           style="font-style:normal;font-variant:normal;font-weight:normal;font-stretch:normal;font-size:5.29166651px;font-family:'Fira Code';-inkscape-font-specification:'Fira Code';stroke-width:0.26458332"
           d="m 139.12017,98.59217 -0.21696,0.338667 1.86796,1.148293 -1.86796,1.15358 0.23813,0.32809 2.01083,-1.25413 v -0.455083 z" />
      </g>
    </g>
    <circle
       r="5.6696429"
       cy="50.351826"
       cx="21.515196"
       id="path2863"
       style="opacity:1;fill:#ff0000;fill-opacity:1;stroke:none;stroke-width:0.90779215;stroke-miterlimit:4;stroke-dasharray:none;stroke-opacity:1" />
    <g
       id="text2869"
       style="font-style:normal;font-weight:normal;font-size:10.58333302px;line-height:1.25;font-family:sans-serif;letter-spacing:0px;word-spacing:0px;fill:#ffffff;fill-opacity:1;stroke:none;stroke-width:0.26458332"
       aria-label="1">
      <path
         id="path2898"
         style="font-style:normal;font-variant:normal;font-weight:bold;font-stretch:normal;font-family:'Fira Code';-inkscape-font-specification:'Fira Code Bold';fill:#ffffff;stroke-width:0.26458332"
         d="m 22.521625,52.410306 v -6.06425 h -1.481667 l -2.370667,1.439333 0.709084,1.153583 1.513416,-0.9525 v 4.423834 h -1.767416 v 1.269999 h 4.7625 v -1.269999 z" />
    </g>
    <circle
       style="opacity:1;fill:#ff0000;fill-opacity:1;stroke:none;stroke-width:0.90779215;stroke-miterlimit:4;stroke-dasharray:none;stroke-opacity:1"
       id="circle2871"
       cx="21.515196"
       cy="77.339348"
       r="5.6696429" />
    <g
       id="text2875"
       style="font-style:normal;font-weight:normal;font-size:10.58333302px;line-height:1.25;font-family:sans-serif;letter-spacing:0px;word-spacing:0px;fill:#ffffff;fill-opacity:1;stroke:none;stroke-width:0.26458332"
       aria-label="2">
      <path
         id="path2895"
         style="font-style:normal;font-variant:normal;font-weight:bold;font-stretch:normal;font-family:'Fira Code';-inkscape-font-specification:'Fira Code Bold';fill:#ffffff;stroke-width:0.26458332"
         d="m 21.414654,73.576973 c -1.185333,0 -1.947333,0.497417 -2.497666,1.259417 l 1.016,0.772583 c 0.391583,-0.518583 0.772583,-0.740833 1.322916,-0.740833 0.635,0 0.98425,0.370416 0.98425,0.963083 0,0.878417 -0.772583,1.74625 -3.175,4.085166 v 1.185334 h 4.868333 l 0.179917,-1.280584 h -3.132666 c 2.233083,-1.989666 2.963333,-2.952749 2.963333,-4.138083 0,-1.121833 -0.85725,-2.106083 -2.529417,-2.106083 z" />
    </g>
    <circle
       r="5.6696429"
       cy="104.32687"
       cx="21.515196"
       id="circle2877"
       style="opacity:1;fill:#ff0000;fill-opacity:1;stroke:none;stroke-width:0.90779215;stroke-miterlimit:4;stroke-dasharray:none;stroke-opacity:1" />
    <g
       id="text2881"
       style="font-style:normal;font-weight:normal;font-size:10.58333302px;line-height:1.25;font-family:sans-serif;letter-spacing:0px;word-spacing:0px;fill:#ffffff;fill-opacity:1;stroke:none;stroke-width:0.26458332"
       aria-label="3">
      <path
         id="path2892"
         style="font-style:normal;font-variant:normal;font-weight:bold;font-stretch:normal;font-family:'Fira Code';-inkscape-font-specification:'Fira Code Bold';fill:#ffffff;stroke-width:0.26458332"
         d="m 21.494029,100.47454 c -1.005417,0 -1.8415,0.34925 -2.50825,0.99483 l 0.85725,0.889 c 0.41275,-0.39158 0.878416,-0.635 1.4605,-0.635 0.635,0 1.068916,0.33867 1.068916,0.889 0,0.635 -0.455083,0.96309 -1.11125,0.96309 h -0.465666 l -0.1905,1.143 h 0.66675 c 0.783166,0 1.23825,0.32808 1.23825,1.10066 0,0.6985 -0.508,1.0795 -1.23825,1.0795 -0.5715,0 -1.100667,-0.21166 -1.524,-0.6985 l -0.941917,0.87842 c 0.613833,0.6985 1.49225,1.10067 2.582333,1.10067 1.756834,0 2.836334,-1.00542 2.836334,-2.24367 0,-1.18533 -0.719667,-1.68275 -1.735667,-1.82033 0.910167,-0.26459 1.502833,-0.8255 1.502833,-1.75684 0,-1.02658 -0.92075,-1.88383 -2.497666,-1.88383 z" />
    </g>
  </g>
</svg>
